<?xml version="1.0" encoding="utf-8"?>
<svg xmlns="http://www.w3.org/2000/svg" viewBox="96.195 85.511 36.67 35.778">
  <path d="M 130.702 103.699 A 16 16 0 0 1 114.702 119.699 A 16 16 0 0 1 98.702 103.699 A 16 16 0 0 1 114.702 87.699 A 16 16 0 0 1 130.702 103.699 Z" style="stroke: rgb(245, 158, 11); paint-order: stroke; fill: rgb(245, 158, 11);"/>
  <path d="M 103.874 111.184 L 103.874 110.92 Q 103.874 109.658 104.287 108.642 Q 104.701 107.627 105.36 106.818 Q 106.02 106.009 106.777 105.383 Q 107.535 104.758 108.223 104.264 Q 109.669 103.232 110.409 102.377 Q 111.149 101.522 111.149 100.455 Q 111.149 98.321 108.808 98.321 Q 107.879 98.321 107.168 98.619 Q 106.456 98.917 106.02 99.216 Q 105.768 99.388 105.618 99.365 Q 105.469 99.342 105.309 99.055 L 104.333 97.345 Q 104.127 96.99 104.46 96.76 Q 105.102 96.324 106.324 95.877 Q 107.546 95.429 109.508 95.429 Q 112.021 95.429 113.433 96.691 Q 114.844 97.953 114.844 100.099 Q 114.844 101.602 114.247 102.692 Q 113.651 103.783 112.698 104.62 Q 111.746 105.458 110.656 106.215 Q 109.543 106.984 108.694 107.741 Q 107.845 108.499 107.845 109.153 L 113.788 109.153 Q 114.064 109.153 114.201 109.244 Q 114.5 109.451 114.821 109.738 Q 115.142 110.025 115.498 110.426 Q 115.613 110.575 115.613 110.656 Q 115.613 110.759 115.498 110.885 Q 115.142 111.287 114.821 111.574 Q 114.5 111.861 114.201 112.067 Q 114.041 112.159 113.788 112.159 L 104.723 112.159 Q 104.23 112.159 104.052 111.901 Q 103.874 111.643 103.874 111.184 Z M 124.719 111.551 Q 124.719 111.895 124.576 112.027 Q 124.432 112.159 124.088 112.159 L 121.724 112.159 Q 121.38 112.159 121.237 112.027 Q 121.093 111.895 121.093 111.551 L 121.093 99.537 L 119.498 100.34 Q 119.269 100.466 119.085 100.443 Q 118.73 100.386 118.311 100.26 Q 117.892 100.134 117.387 99.916 Q 117.215 99.812 117.18 99.732 Q 117.135 99.652 117.18 99.468 Q 117.444 98.458 117.812 97.816 Q 117.926 97.655 118.144 97.552 L 122.528 95.337 L 124.719 95.337 Z" style="fill: rgb(255, 255, 255); text-wrap-mode: nowrap;"/>
</svg>