<?xml version="1.0" encoding="utf-8"?>
<svg xmlns="http://www.w3.org/2000/svg" viewBox="94.968 85.511 122.855 36.679">
  <path d="M 150.656 112.619 L 141.018 112.619 Q 140.279 112.619 139.404 112.359 Q 138.529 112.099 137.784 111.505 Q 137.039 110.91 136.54 109.96 Q 136.041 109.01 136.041 107.629 L 136.041 102.816 Q 136.041 102.31 136.157 101.75 Q 136.274 101.189 136.52 100.636 Q 136.766 100.082 137.155 99.576 Q 137.545 99.07 138.099 98.687 Q 138.653 98.305 139.377 98.072 Q 140.102 97.84 141.018 97.84 L 150.656 97.84 L 150.656 101.394 L 141.018 101.394 Q 140.32 101.394 139.958 101.75 Q 139.596 102.105 139.596 102.844 L 139.596 107.629 Q 139.596 108.326 139.965 108.695 Q 140.334 109.064 141.045 109.064 L 150.656 109.064 Z M 170.018 112.619 L 166.463 112.619 L 166.463 102.816 Q 166.463 102.119 166.108 101.757 Q 165.752 101.394 165.041 101.394 L 158.629 101.394 L 158.629 97.84 L 165.041 97.84 Q 165.547 97.84 166.108 97.956 Q 166.668 98.072 167.222 98.318 Q 167.776 98.564 168.282 98.954 Q 168.787 99.344 169.17 99.897 Q 169.553 100.451 169.785 101.176 Q 170.018 101.9 170.018 102.816 Z M 157.194 112.619 L 153.639 112.619 L 153.639 91.592 L 157.194 91.592 Z M 188.534 107.724 Q 188.534 108.463 188.274 109.317 Q 188.015 110.172 187.434 110.903 Q 186.853 111.635 185.916 112.127 Q 184.979 112.619 183.64 112.619 L 177.228 112.619 Q 176.489 112.619 175.635 112.359 Q 174.78 112.099 174.049 111.518 Q 173.317 110.937 172.825 110.001 Q 172.333 109.064 172.333 107.724 Q 172.333 106.986 172.593 106.125 Q 172.853 105.264 173.434 104.532 Q 174.015 103.801 174.951 103.308 Q 175.888 102.816 177.228 102.816 L 183.64 102.816 L 183.64 106.207 L 177.228 106.207 Q 176.503 106.207 176.106 106.651 Q 175.71 107.096 175.71 107.752 Q 175.71 108.449 176.168 108.839 Q 176.626 109.228 177.255 109.228 L 183.64 109.228 Q 184.364 109.228 184.761 108.791 Q 185.157 108.353 185.157 107.697 L 185.157 102.734 Q 185.157 102.037 184.727 101.627 Q 184.296 101.217 183.64 101.217 L 175.833 101.217 L 175.833 97.84 L 183.64 97.84 Q 184.378 97.84 185.232 98.099 Q 186.087 98.359 186.818 98.94 Q 187.55 99.521 188.042 100.458 Q 188.534 101.394 188.534 102.734 Z M 195.178 94.805 L 191.623 94.805 L 191.623 91.592 L 195.178 91.592 Z M 195.178 112.619 L 191.623 112.619 L 191.623 97.84 L 195.178 97.84 Z M 214.956 112.619 L 211.401 112.619 L 211.401 104.416 Q 211.401 103.719 211.162 103.165 Q 210.923 102.611 210.513 102.215 Q 210.103 101.818 209.549 101.606 Q 208.995 101.394 208.353 101.394 L 202.132 101.394 L 202.132 112.619 L 198.577 112.619 L 198.577 99.603 Q 198.577 99.234 198.714 98.913 Q 198.851 98.592 199.097 98.352 Q 199.343 98.113 199.671 97.976 Q 199.999 97.84 200.368 97.84 L 208.38 97.84 Q 209.05 97.84 209.795 97.99 Q 210.54 98.14 211.271 98.475 Q 212.003 98.81 212.666 99.323 Q 213.329 99.836 213.842 100.567 Q 214.354 101.299 214.655 102.256 Q 214.956 103.213 214.956 104.416 Z" style="fill: rgb(255, 255, 255); text-wrap-mode: nowrap;"/>
  <path d="M 130.702 103.699 A 16 16 0 0 1 114.702 119.699 A 16 16 0 0 1 98.702 103.699 A 16 16 0 0 1 114.702 87.699 A 16 16 0 0 1 130.702 103.699 Z" style="stroke: rgb(245, 158, 11); paint-order: stroke; fill: rgb(245, 158, 11);"/>
  <path d="M 103.874 111.184 L 103.874 110.92 Q 103.874 109.658 104.287 108.642 Q 104.701 107.627 105.36 106.818 Q 106.02 106.009 106.777 105.383 Q 107.535 104.758 108.223 104.264 Q 109.669 103.232 110.409 102.377 Q 111.149 101.522 111.149 100.455 Q 111.149 98.321 108.808 98.321 Q 107.879 98.321 107.168 98.619 Q 106.456 98.917 106.02 99.216 Q 105.768 99.388 105.618 99.365 Q 105.469 99.342 105.309 99.055 L 104.333 97.345 Q 104.127 96.99 104.46 96.76 Q 105.102 96.324 106.324 95.877 Q 107.546 95.429 109.508 95.429 Q 112.021 95.429 113.433 96.691 Q 114.844 97.953 114.844 100.099 Q 114.844 101.602 114.247 102.692 Q 113.651 103.783 112.698 104.62 Q 111.746 105.458 110.656 106.215 Q 109.543 106.984 108.694 107.741 Q 107.845 108.499 107.845 109.153 L 113.788 109.153 Q 114.064 109.153 114.201 109.244 Q 114.5 109.451 114.821 109.738 Q 115.142 110.025 115.498 110.426 Q 115.613 110.575 115.613 110.656 Q 115.613 110.759 115.498 110.885 Q 115.142 111.287 114.821 111.574 Q 114.5 111.861 114.201 112.067 Q 114.041 112.159 113.788 112.159 L 104.723 112.159 Q 104.23 112.159 104.052 111.901 Q 103.874 111.643 103.874 111.184 Z M 124.719 111.551 Q 124.719 111.895 124.576 112.027 Q 124.432 112.159 124.088 112.159 L 121.724 112.159 Q 121.38 112.159 121.237 112.027 Q 121.093 111.895 121.093 111.551 L 121.093 99.537 L 119.498 100.34 Q 119.269 100.466 119.085 100.443 Q 118.73 100.386 118.311 100.26 Q 117.892 100.134 117.387 99.916 Q 117.215 99.812 117.18 99.732 Q 117.135 99.652 117.18 99.468 Q 117.444 98.458 117.812 97.816 Q 117.926 97.655 118.144 97.552 L 122.528 95.337 L 124.719 95.337 Z" style="fill: rgb(255, 255, 255); text-wrap-mode: nowrap;"/>
</svg>